<svg width="141" height="23" viewBox="0 0 141 23" fill="none" xmlns="http://www.w3.org/2000/svg">
<path d="M20.98 2.9L17.52 17H12.7L10.76 8.36L8.78 17H3.96L0.54 2.9H4.78L6.42 12.54L8.64 2.9H12.94L15.1 12.46L16.74 2.9H20.98ZM30.0234 5.68C31.3034 5.68 32.3168 6.11333 33.0634 6.98C33.8234 7.83333 34.2034 8.99333 34.2034 10.46V17H30.2834V10.98C30.2834 10.34 30.1168 9.84 29.7834 9.48C29.4501 9.10667 29.0034 8.92 28.4434 8.92C27.8568 8.92 27.3968 9.10667 27.0634 9.48C26.7301 9.84 26.5634 10.34 26.5634 10.98V17H22.6434V2.2H26.5634V7.38C26.9101 6.87333 27.3768 6.46667 27.9634 6.16C28.5634 5.84 29.2501 5.68 30.0234 5.68ZM38.3344 4.74C37.641 4.74 37.081 4.55333 36.6544 4.18C36.241 3.79333 36.0344 3.31333 36.0344 2.74C36.0344 2.15333 36.241 1.66667 36.6544 1.28C37.081 0.893332 37.641 0.699999 38.3344 0.699999C39.0144 0.699999 39.561 0.893332 39.9744 1.28C40.401 1.66667 40.6144 2.15333 40.6144 2.74C40.6144 3.31333 40.401 3.79333 39.9744 4.18C39.561 4.55333 39.0144 4.74 38.3344 4.74ZM40.2744 5.78V17H36.3544V5.78H40.2744ZM47.2867 17.14C46.2734 17.14 45.3667 16.9733 44.5667 16.64C43.7801 16.2933 43.1534 15.8267 42.6867 15.24C42.2334 14.64 41.9801 13.9667 41.9267 13.22H45.7267C45.7801 13.58 45.9467 13.86 46.2267 14.06C46.5067 14.26 46.8534 14.36 47.2667 14.36C47.5867 14.36 47.8401 14.2933 48.0267 14.16C48.2134 14.0267 48.3067 13.8533 48.3067 13.64C48.3067 13.36 48.1534 13.1533 47.8467 13.02C47.5401 12.8867 47.0334 12.74 46.3267 12.58C45.5267 12.42 44.8601 12.24 44.3267 12.04C43.7934 11.84 43.3267 11.5133 42.9267 11.06C42.5401 10.6067 42.3467 9.99333 42.3467 9.22C42.3467 8.55333 42.5267 7.95333 42.8867 7.42C43.2467 6.87333 43.7734 6.44 44.4667 6.12C45.1734 5.8 46.0201 5.64 47.0067 5.64C48.4734 5.64 49.6267 6 50.4667 6.72C51.3067 7.44 51.7934 8.38667 51.9267 9.56H48.3867C48.3201 9.2 48.1601 8.92667 47.9067 8.74C47.6667 8.54 47.3401 8.44 46.9267 8.44C46.6067 8.44 46.3601 8.5 46.1867 8.62C46.0267 8.74 45.9467 8.90667 45.9467 9.12C45.9467 9.38667 46.1001 9.59333 46.4067 9.74C46.7134 9.87333 47.2067 10.0133 47.8867 10.16C48.7001 10.3333 49.3734 10.5267 49.9067 10.74C50.4534 10.9533 50.9267 11.3 51.3267 11.78C51.7401 12.2467 51.9467 12.8867 51.9467 13.7C51.9467 14.3533 51.7534 14.94 51.3667 15.46C50.9934 15.98 50.4534 16.3933 49.7467 16.7C49.0534 16.9933 48.2334 17.14 47.2867 17.14ZM57.7939 7.34C58.1006 6.82 58.5339 6.40667 59.0939 6.1C59.6539 5.79333 60.3139 5.64 61.0739 5.64C61.9672 5.64 62.7739 5.87333 63.4939 6.34C64.2272 6.80667 64.8006 7.47333 65.2139 8.34C65.6406 9.20667 65.8539 10.22 65.8539 11.38C65.8539 12.54 65.6406 13.56 65.2139 14.44C64.8006 15.3067 64.2272 15.9733 63.4939 16.44C62.7739 16.9067 61.9672 17.14 61.0739 17.14C60.3139 17.14 59.6539 16.9867 59.0939 16.68C58.5472 16.3733 58.1139 15.96 57.7939 15.44V22.36H53.8739V5.78H57.7939V7.34ZM61.8739 11.38C61.8739 10.6467 61.6739 10.08 61.2739 9.68C60.8872 9.26667 60.4072 9.06 59.8339 9.06C59.2606 9.06 58.7739 9.26667 58.3739 9.68C57.9872 10.0933 57.7939 10.66 57.7939 11.38C57.7939 12.1133 57.9872 12.6867 58.3739 13.1C58.7739 13.5133 59.2606 13.72 59.8339 13.72C60.4072 13.72 60.8872 13.5133 61.2739 13.1C61.6739 12.6733 61.8739 12.1 61.8739 11.38ZM78.1877 11.26C78.1877 11.5667 78.1677 11.8733 78.1277 12.18H70.7077C70.7477 12.7933 70.9143 13.2533 71.2077 13.56C71.5143 13.8533 71.901 14 72.3677 14C73.021 14 73.4877 13.7067 73.7677 13.12H77.9477C77.7743 13.8933 77.4343 14.5867 76.9277 15.2C76.4343 15.8 75.8077 16.2733 75.0477 16.62C74.2877 16.9667 73.4477 17.14 72.5277 17.14C71.421 17.14 70.4343 16.9067 69.5677 16.44C68.7143 15.9733 68.041 15.3067 67.5477 14.44C67.0677 13.5733 66.8277 12.5533 66.8277 11.38C66.8277 10.2067 67.0677 9.19333 67.5477 8.34C68.0277 7.47333 68.6943 6.80667 69.5477 6.34C70.4143 5.87333 71.4077 5.64 72.5277 5.64C73.6343 5.64 74.6143 5.86667 75.4677 6.32C76.321 6.77333 76.9877 7.42667 77.4677 8.28C77.9477 9.12 78.1877 10.1133 78.1877 11.26ZM74.1877 10.28C74.1877 9.8 74.0277 9.42667 73.7077 9.16C73.3877 8.88 72.9877 8.74 72.5077 8.74C72.0277 8.74 71.6343 8.87333 71.3277 9.14C71.021 9.39333 70.821 9.77333 70.7277 10.28H74.1877ZM83.7119 7.76C84.1519 7.12 84.6852 6.61333 85.3119 6.24C85.9385 5.86667 86.6119 5.68 87.3319 5.68V9.86H86.2319C85.3785 9.86 84.7452 10.0267 84.3319 10.36C83.9185 10.6933 83.7119 11.2733 83.7119 12.1V17H79.7919V5.78H83.7119V7.76ZM92.0853 9.92C92.0853 8.53333 92.372 7.3 92.9453 6.22C93.532 5.12667 94.3586 4.28 95.4253 3.68C96.492 3.06667 97.7186 2.76 99.1053 2.76C100.865 2.76 102.345 3.23333 103.545 4.18C104.745 5.11333 105.519 6.38667 105.865 8H101.645C101.392 7.46667 101.039 7.06 100.585 6.78C100.145 6.5 99.632 6.36 99.0453 6.36C98.1386 6.36 97.412 6.68667 96.8653 7.34C96.332 7.98 96.0653 8.84 96.0653 9.92C96.0653 11.0133 96.332 11.8867 96.8653 12.54C97.412 13.18 98.1386 13.5 99.0453 13.5C99.632 13.5 100.145 13.36 100.585 13.08C101.039 12.8 101.392 12.3933 101.645 11.86H105.865C105.519 13.4733 104.745 14.7533 103.545 15.7C102.345 16.6333 100.865 17.1 99.1053 17.1C97.7186 17.1 96.492 16.8 95.4253 16.2C94.3586 15.5867 93.532 14.74 92.9453 13.66C92.372 12.5667 92.0853 11.32 92.0853 9.92ZM107.082 11.38C107.082 10.22 107.288 9.20667 107.702 8.34C108.128 7.47333 108.702 6.80667 109.422 6.34C110.155 5.87333 110.968 5.64 111.862 5.64C112.635 5.64 113.302 5.79333 113.862 6.1C114.422 6.40667 114.855 6.82 115.162 7.34V5.78H119.082V17H115.162V15.44C114.855 15.96 114.415 16.3733 113.842 16.68C113.282 16.9867 112.622 17.14 111.862 17.14C110.968 17.14 110.155 16.9067 109.422 16.44C108.702 15.9733 108.128 15.3067 107.702 14.44C107.288 13.56 107.082 12.54 107.082 11.38ZM115.162 11.38C115.162 10.66 114.962 10.0933 114.562 9.68C114.175 9.26667 113.695 9.06 113.122 9.06C112.535 9.06 112.048 9.26667 111.662 9.68C111.275 10.08 111.082 10.6467 111.082 11.38C111.082 12.1 111.275 12.6733 111.662 13.1C112.048 13.5133 112.535 13.72 113.122 13.72C113.695 13.72 114.175 13.5133 114.562 13.1C114.962 12.6867 115.162 12.1133 115.162 11.38ZM125.235 7.76C125.675 7.12 126.209 6.61333 126.835 6.24C127.462 5.86667 128.135 5.68 128.855 5.68V9.86H127.755C126.902 9.86 126.269 10.0267 125.855 10.36C125.442 10.6933 125.235 11.2733 125.235 12.1V17H121.315V5.78H125.235V7.76ZM140.981 11.26C140.981 11.5667 140.961 11.8733 140.921 12.18H133.501C133.541 12.7933 133.707 13.2533 134.001 13.56C134.307 13.8533 134.694 14 135.161 14C135.814 14 136.281 13.7067 136.561 13.12H140.741C140.567 13.8933 140.227 14.5867 139.721 15.2C139.227 15.8 138.601 16.2733 137.841 16.62C137.081 16.9667 136.241 17.14 135.321 17.14C134.214 17.14 133.227 16.9067 132.361 16.44C131.507 15.9733 130.834 15.3067 130.341 14.44C129.861 13.5733 129.621 12.5533 129.621 11.38C129.621 10.2067 129.861 9.19333 130.341 8.34C130.821 7.47333 131.487 6.80667 132.341 6.34C133.207 5.87333 134.201 5.64 135.321 5.64C136.427 5.64 137.407 5.86667 138.261 6.32C139.114 6.77333 139.781 7.42667 140.261 8.28C140.741 9.12 140.981 10.1133 140.981 11.26ZM136.981 10.28C136.981 9.8 136.821 9.42667 136.501 9.16C136.181 8.88 135.781 8.74 135.301 8.74C134.821 8.74 134.427 8.87333 134.121 9.14C133.814 9.39333 133.614 9.77333 133.521 10.28H136.981Z" fill="#111111"/>
</svg>
