<svg width="62" height="61" viewBox="0 0 62 61" fill="none" xmlns="http://www.w3.org/2000/svg">
<path d="M34.375 60.875V54.125H41.125V60.875H34.375ZM27.625 54.125V37.25H34.375V54.125H27.625ZM54.625 44V30.5H61.375V44H54.625ZM47.875 30.5V23.75H54.625V30.5H47.875ZM7.375 37.25V30.5H14.125V37.25H7.375ZM0.625 30.5V23.75H7.375V30.5H0.625ZM31 6.875V0.125H37.75V6.875H31ZM5.6875 15.3125H15.8125V5.1875H5.6875V15.3125ZM4 20.375C3.04375 20.375 2.24275 20.051 1.597 19.403C0.949 18.7572 0.625 17.9562 0.625 17V3.5C0.625 2.54375 0.949 1.74162 1.597 1.09362C2.24275 0.447875 3.04375 0.125 4 0.125H17.5C18.4562 0.125 19.2584 0.447875 19.9064 1.09362C20.5521 1.74162 20.875 2.54375 20.875 3.5V17C20.875 17.9562 20.5521 18.7572 19.9064 19.403C19.2584 20.051 18.4562 20.375 17.5 20.375H4ZM5.6875 55.8125H15.8125V45.6875H5.6875V55.8125ZM4 60.875C3.04375 60.875 2.24275 60.551 1.597 59.903C0.949 59.2572 0.625 58.4562 0.625 57.5V44C0.625 43.0438 0.949 42.2416 1.597 41.5936C2.24275 40.9479 3.04375 40.625 4 40.625H17.5C18.4562 40.625 19.2584 40.9479 19.9064 41.5936C20.5521 42.2416 20.875 43.0438 20.875 44V57.5C20.875 58.4562 20.5521 59.2572 19.9064 59.903C19.2584 60.551 18.4562 60.875 17.5 60.875H4ZM46.1875 15.3125H56.3125V5.1875H46.1875V15.3125ZM44.5 20.375C43.5438 20.375 42.7428 20.051 42.097 19.403C41.449 18.7572 41.125 17.9562 41.125 17V3.5C41.125 2.54375 41.449 1.74162 42.097 1.09362C42.7428 0.447875 43.5438 0.125 44.5 0.125H58C58.9562 0.125 59.7572 0.447875 60.403 1.09362C61.051 1.74162 61.375 2.54375 61.375 3.5V17C61.375 17.9562 61.051 18.7572 60.403 19.403C59.7572 20.051 58.9562 20.375 58 20.375H44.5ZM47.875 60.875V50.75H41.125V44H54.625V54.125H61.375V60.875H47.875ZM34.375 37.25V30.5H47.875V37.25H34.375ZM20.875 37.25V30.5H14.125V23.75H34.375V30.5H27.625V37.25H20.875ZM24.25 20.375V6.875H31V13.625H37.75V20.375H24.25ZM8.21875 12.7812V7.71875H13.2812V12.7812H8.21875ZM8.21875 53.2812V48.2188H13.2812V53.2812H8.21875ZM48.7188 12.7812V7.71875H53.7812V12.7812H48.7188Z" fill="black"/>
</svg>
